<?xml version="1.0" encoding="utf-8"?>
<!-- Generator: Adobe Illustrator 27.1.1, SVG Export Plug-In . SVG Version: 6.00 Build 0)  -->
<svg version="1.1" id="Layer_1" xmlns="http://www.w3.org/2000/svg" xmlns:xlink="http://www.w3.org/1999/xlink" x="0px" y="0px"
	 viewBox="0 0 398.3 113.9" style="enable-background:new 0 0 398.3 113.9;" xml:space="preserve">
<style type="text/css">
	.st0{fill:#1F2F45;}
	.st1{fill:#3E9143;}
</style>
<g>
	<g>
		<path class="st0" d="M226.3,69.4h0.2L238.8,28h4.5l12.4,41.4h0.2L268.6,28h3.7l-14.5,45.3h-4.1l-12.4-41.1H241l-12.5,41.1h-4.2
			L209.9,28h3.6L226.3,69.4z"/>
		<path class="st0" d="M310,64.9c0,1.8,0.2,3.1,0.5,4.1c0.3,0.9,1.2,1.4,2.5,1.4c0.6,0,1.4-0.1,2.5-0.3V73h-0.3
			c-1.1,0.2-1.9,0.4-2.5,0.4c-2.4,0-4-0.6-4.8-1.7s-1.2-2.8-1.2-4.9v-2.4h-0.2c-1.1,2.9-3.2,5.3-6.2,7.2c-3,1.9-6.6,2.9-10.7,2.9
			c-4.6,0-8.3-1-11.1-3c-2.7-2-4.1-5.3-4.1-9.7c0-2.5,0.5-4.6,1.5-6.3s2.3-3,3.9-4s3.4-1.7,5.2-2.1c1.9-0.4,3.9-0.7,6.1-0.9
			c3.9-0.3,6.9-0.6,8.9-0.9c2-0.3,3.5-0.8,4.5-1.4c1-0.6,1.6-1.4,1.9-2.5c0.3-1,0.4-2.6,0.4-4.6c0-0.6-0.2-1.5-0.6-2.4
			c-0.4-1-1-2-2-3c-0.9-1-2.2-1.8-3.9-2.5c-1.7-0.7-3.7-1-6.1-1c-4.1,0-7.4,1-9.9,3.1s-3.8,5.1-4.1,8.9h-3.3
			c0.2-4.9,1.8-8.7,4.8-11.2c2.9-2.5,7.1-3.8,12.5-3.8c2.2,0,4.2,0.2,6,0.6s3.5,1,5,1.9s2.7,2.1,3.5,3.7c0.9,1.6,1.3,3.5,1.3,5.7
			L310,64.9L310,64.9z M306.7,47.6c-0.9,1-2.2,1.7-3.9,2.1c-1.7,0.4-4.2,0.7-7.4,0.9c-2.4,0.2-4.1,0.4-5.1,0.5
			c-4.1,0.5-7.2,1.5-9.3,3.1c-2.1,1.6-3.1,4.1-3.1,7.4c0,2.9,1,5.2,3.1,7.1s5,2.8,8.8,2.8c3.5,0,6.4-0.6,8.7-1.9
			c2.3-1.3,4-2.8,5.2-4.6c1.2-1.8,2-3.5,2.4-5.1s0.6-2.9,0.6-3.9L306.7,47.6L306.7,47.6z"/>
		<path class="st0" d="M327.1,38.1h0.3c0.9-2.9,2.9-5.4,6.1-7.4s6.9-3,11.2-3V31c-0.2,0-0.4,0-0.8-0.1c-0.4,0-0.7,0-0.9,0
			c-1.8,0-3.7,0.4-5.6,1.1c-1.9,0.7-3.7,1.9-5.2,3.4c-1.8,1.8-3,3.6-3.7,5.4c-0.7,1.8-1.2,4.3-1.4,7.6v24.8h-3.3V28h3.3V38.1z"/>
		<path class="st0" d="M349.1,51.1c0,5.8,1.5,10.6,4.4,14.5s7,5.9,12.3,5.9c4.3,0,7.9-1.2,10.8-3.6s4.7-5.7,5.5-9.9h3.3
			c-0.9,5.3-3,9.3-6.4,12.2c-3.4,2.8-7.8,4.2-13.2,4.2c-6.3,0-11.2-2.2-14.7-6.5s-5.3-9.8-5.3-16.4c0-3.2,0.4-6.3,1.3-9.3
			c0.9-2.9,2.1-5.6,3.8-7.8c1.7-2.3,3.8-4.1,6.3-5.4s5.4-2,8.6-2c3.3,0,6.2,0.6,8.7,1.7s4.6,2.8,6.3,4.8c1.7,2.1,2.9,4.5,3.7,7.2
			c0.8,2.7,1.2,5.6,1.2,8.7c0,0.2,0,0.4-0.1,0.8v0.9H349.1z M382.4,48.2c-0.1-2.4-0.5-4.7-1.2-6.9c-0.8-2.2-1.8-4.2-3.3-5.9
			c-1.4-1.7-3.1-3.1-5.2-4.1c-2.1-1-4.3-1.5-6.9-1.5c-2.4,0-4.6,0.5-6.6,1.5c-2,1-3.7,2.4-5.2,4.2c-1.4,1.8-2.6,3.7-3.4,5.9
			s-1.3,4.4-1.5,6.7h33.3V48.2z"/>
	</g>
	<g>
		<rect x="141.6" y="28" class="st1" width="9.2" height="46.6"/>
		<path class="st1" d="M82.6,74.7H72.3l-6.1-5.5c-14.5,9.6-33.8,7.8-44-3.5c-5.7-6.2-9.7-14.3-9.7-23.6c0-9.2,3.8-17.5,9.7-23.6
			c6-6,14.3-9.9,23.5-9.9s17.5,3.8,23.6,9.9c5.9,6.1,9.7,14.3,9.7,23.6c0,7.7-2.7,14.7-7.1,20.4l10.8,10.1v2.1H82.6z M62.4,25.2
			c-4.3-4.4-10.2-7.1-16.8-7.1c-6.4,0-12.4,2.7-16.8,7.1c-4.2,4.3-7,10.2-7,16.9s2.8,12.7,7,16.9c8.1,8.1,20,9.6,30,3.6l-18-16h13
			l11.1,10.1c2.9-3.9,4.5-9.3,4.5-14.5C69.4,35.5,66.6,29.5,62.4,25.2z"/>
		<path class="st1" d="M170,72.3c-3-1.6-5.3-3.9-6.9-6.9c-1.6-3-2.4-6.7-2.4-11v-7.7c0-4.2,0.8-7.8,2.4-10.8c1.6-3,3.9-5.3,6.9-6.9
			s6.6-2.4,10.9-2.4c2.4,0,4.7,0.3,6.9,0.9c2.1,0.6,4.1,1.4,5.8,2.5s3.1,2.5,4.3,4l-6.6,5.9c-1.3-1.5-2.9-2.6-4.6-3.5
			c-1.8-0.8-3.6-1.2-5.5-1.2c-3.5,0-6.3,1-8.2,3s-2.9,4.8-2.9,8.4v7.7c0,3.7,1,6.5,2.9,8.5c1.9,2,4.7,3,8.2,3c1.9,0,3.8-0.4,5.6-1.3
			s3.3-2.1,4.6-3.7l6.6,6.4c-1.2,1.6-2.6,2.9-4.3,4s-3.6,1.9-5.8,2.5c-2.1,0.6-4.4,0.9-6.8,0.9C176.7,74.7,173,73.9,170,72.3z"/>
		<path class="st1" d="M131.5,53.3c-0.1-0.4-0.1-0.8-0.2-1.2c-0.2-1.1-0.5-2.3-0.9-3.4c-1-2.6-2.5-4.8-4.3-6.7
			c1.8-1.9,3.4-4.1,4.3-6.7c0.4-1.1,0.7-2.2,0.9-3.4c0.1-0.4,0.1-0.8,0.2-1.2c0.1-0.4,0.1-0.8,0.1-1.2c0-0.5,0-0.9,0-1.4
			s0-0.9,0-1.4c0-0.4-0.1-0.8-0.1-1.2c-0.1-0.4-0.1-0.8-0.2-1.2c-0.2-1.1-0.5-2.3-0.9-3.4c-2.4-6.5-7.6-11.5-15.7-11.5H87.9v6v21.8
			v3.6v2.4v3.6v21.8v6h26.8c8.1,0,13.3-5,15.7-11.5c0.4-1.1,0.7-2.2,0.9-3.4c0.1-0.4,0.1-0.8,0.2-1.2c0.1-0.4,0.1-0.8,0.1-1.2
			c0-0.5,0-0.9,0-1.4s0-0.9,0-1.4C131.6,54.1,131.5,53.7,131.5,53.3z M97.1,19h17.4c5.1,0,7.7,4.6,7.7,9.1c0,4.6-2.6,9.1-7.7,9.1
			H97.1V19z M114.5,65.1H97.1V46.8h17.4c5.1,0,7.7,4.6,7.7,9.1C122.2,60.5,119.6,65.1,114.5,65.1z"/>
		<path class="st1" d="M150.8,13.9c0,2.5-2.1,4.6-4.6,4.6s-4.6-2.1-4.6-4.6s2.1-4.6,4.6-4.6C148.8,9.3,150.8,11.4,150.8,13.9z"/>
	</g>
	<path d="M72.1,103.8l-1.4,1.4c-0.4,0-0.9-0.1-1.3-0.2c-0.5-0.1-0.9-0.3-1.4-0.6c-0.5-0.2-1.1-0.6-1.9-1.2c-1.2-0.2-2.1-0.8-2.8-1.7
		c-0.7-0.9-1.1-2-1.1-3.2c0-1.5,0.5-2.7,1.4-3.7c1-1,2.2-1.5,3.6-1.5c1.5,0,2.7,0.5,3.6,1.4c1,1,1.5,2.2,1.5,3.6
		c0,1.2-0.4,2.3-1.1,3.2c-0.7,0.9-1.7,1.5-2.8,1.8l0.4,0.1c1.1,0.5,1.9,0.7,2.4,0.7C71.4,104,71.7,104,72.1,103.8z M67.2,94.5
		c-1.1,0-1.9,0.4-2.6,1.1c-0.7,0.7-1,1.6-1,2.7s0.3,2,1,2.7c0.7,0.7,1.6,1.1,2.6,1.1s1.9-0.4,2.6-1.1s1.1-1.6,1.1-2.7s-0.3-2-1-2.7
		C69.1,94.8,68.3,94.5,67.2,94.5z"/>
	<path d="M82.8,93.2h1.4v5.7c0,0.8-0.1,1.3-0.2,1.7c-0.1,0.4-0.2,0.7-0.4,1c-0.2,0.3-0.3,0.5-0.6,0.7c-0.7,0.7-1.7,1-2.9,1
		c-1.2,0-2.2-0.3-3-1c-0.2-0.2-0.4-0.4-0.6-0.7c-0.2-0.3-0.3-0.6-0.4-1s-0.2-1-0.2-1.8v-5.6h1.4v5.7c0,0.9,0.1,1.6,0.3,2
		c0.2,0.4,0.5,0.7,0.9,0.9c0.4,0.2,0.9,0.3,1.5,0.3c0.8,0,1.5-0.2,2-0.7c0.3-0.2,0.5-0.5,0.6-0.8s0.2-0.9,0.2-1.7
		C82.8,98.9,82.8,93.2,82.8,93.2z"/>
	<path d="M90.9,93.2h1l4.2,10h-1.4l-1.3-3h-4l-1.2,3h-1.4L90.9,93.2z M92.9,99l-1.5-3.6L90,99H92.9z"/>
	<path d="M99.4,93.2h1.4v8.7h4.3v1.3h-5.6v-10H99.4z"/>
	<path d="M108.5,93.2h1.4v10h-1.4V93.2z"/>
	<path d="M113.4,93.2h7.9v1.3H118v8.7h-1.4v-8.7h-3.2V93.2z"/>
	<path d="M130.5,93.2h1.6l-3.5,4.7v5.3h-1.4v-5.3l-3.5-4.7h1.6l2.5,3.4L130.5,93.2z"/>
	<path d="M152.1,95.1h1.1l-2.6,3.4l2.8,3.6h-1.1l-2.3-2.9l-2.3,2.9h-1.2l2.8-3.6l-2.6-3.4h1.2l2.1,2.7L152.1,95.1z"/>
	<path d="M171.5,103.2h-3.2v-10h2.5c0.8,0,1.4,0.1,1.8,0.3c0.4,0.2,0.8,0.5,1,0.9s0.3,0.8,0.3,1.3c0,1-0.5,1.7-1.4,2.1
		c0.7,0.1,1.2,0.4,1.6,0.9c0.4,0.5,0.6,1,0.6,1.7c0,0.5-0.1,1-0.4,1.4c-0.2,0.4-0.6,0.7-1.1,1C172.8,103.1,172.2,103.2,171.5,103.2z
		 M170.8,94.5h-1.2v3h0.9c0.7,0,1.2-0.1,1.5-0.4s0.5-0.7,0.5-1.1C172.5,95,171.9,94.5,170.8,94.5z M170.9,98.8h-1.3v3.2h1.3
		c0.7,0,1.2-0.1,1.5-0.2s0.5-0.3,0.6-0.6c0.2-0.3,0.2-0.5,0.2-0.8s-0.1-0.6-0.3-0.8c-0.2-0.3-0.4-0.4-0.7-0.6
		C172,98.8,171.6,98.8,170.9,98.8z"/>
	<path d="M181.6,93.2h1l4.2,10h-1.4l-1.3-3h-4l-1.2,3h-1.4L181.6,93.2z M183.6,99l-1.5-3.6l-1.4,3.6H183.6z"/>
	<path d="M192.4,99l-1-0.7c-0.6-0.4-1.1-0.8-1.4-1.2c-0.3-0.4-0.4-0.9-0.4-1.4c0-0.8,0.3-1.4,0.8-1.9s1.2-0.7,2-0.7s1.5,0.2,2.2,0.7
		v1.6c-0.7-0.7-1.4-1-2.2-1c-0.4,0-0.8,0.1-1.1,0.3c-0.3,0.2-0.4,0.5-0.4,0.8s0.1,0.6,0.3,0.8c0.2,0.3,0.5,0.5,1,0.8l1,0.6
		c1.2,0.7,1.7,1.7,1.7,2.8c0,0.8-0.3,1.4-0.8,1.9s-1.2,0.7-2,0.7c-0.9,0-1.8-0.3-2.6-0.9v-1.8c0.7,1,1.6,1.5,2.5,1.5
		c0.4,0,0.8-0.1,1.1-0.4c0.3-0.2,0.4-0.6,0.4-0.9C193.7,100.1,193.3,99.6,192.4,99z"/>
	<path d="M198.7,93.2h1.4v10h-1.4V93.2z"/>
	<path d="M212.5,100.9v1.6c-1,0.6-2.1,0.9-3.4,0.9c-1.1,0-2-0.2-2.7-0.7c-0.7-0.4-1.3-1.1-1.7-1.8c-0.4-0.8-0.6-1.6-0.6-2.5
		c0-1.4,0.5-2.7,1.5-3.7s2.2-1.5,3.6-1.5c1,0,2.1,0.3,3.3,0.8v1.5c-1.1-0.7-2.2-1-3.2-1c-1.1,0-2,0.4-2.7,1.1s-1.1,1.6-1.1,2.7
		s0.4,2,1.1,2.7c0.7,0.7,1.6,1.1,2.7,1.1C210.3,102,211.5,101.6,212.5,100.9z"/>
	<path d="M233.1,95.1h1.1l-2.6,3.4l2.8,3.6h-1.1l-2.3-2.9l-2.3,2.9h-1.2l2.8-3.6l-2.6-3.4h1.2l2.1,2.7L233.1,95.1z"/>
	<path d="M251.6,99l-1-0.7c-0.6-0.4-1.1-0.8-1.4-1.2s-0.4-0.9-0.4-1.4c0-0.8,0.3-1.4,0.8-1.9s1.2-0.7,2-0.7s1.5,0.2,2.2,0.7v1.6
		c-0.7-0.7-1.4-1-2.2-1c-0.4,0-0.8,0.1-1.1,0.3c-0.3,0.2-0.4,0.5-0.4,0.8s0.1,0.6,0.3,0.8c0.2,0.3,0.5,0.5,1,0.8l1,0.6
		c1.2,0.7,1.7,1.7,1.7,2.8c0,0.8-0.3,1.4-0.8,1.9s-1.2,0.7-2,0.7c-0.9,0-1.8-0.3-2.6-0.9v-1.8c0.7,1,1.6,1.5,2.5,1.5
		c0.4,0,0.8-0.1,1.1-0.4c0.3-0.2,0.4-0.6,0.4-0.9C252.9,100.1,252.5,99.6,251.6,99z"/>
	<path d="M262.5,93.1c1.5,0,2.7,0.5,3.6,1.5c1,1,1.5,2.2,1.5,3.7s-0.5,2.7-1.5,3.6c-1,1-2.2,1.4-3.7,1.4c-1.4,0-2.6-0.5-3.6-1.4
		c-0.9-1-1.4-2.2-1.4-3.6c0-1.5,0.5-2.7,1.4-3.7C259.9,93.6,261.1,93.1,262.5,93.1z M262.6,94.5c-1.1,0-2,0.4-2.7,1.1s-1,1.6-1,2.7
		s0.4,2,1,2.7c0.7,0.7,1.6,1.1,2.6,1.1c1.1,0,1.9-0.4,2.6-1.1s1.1-1.6,1.1-2.7s-0.4-1.9-1.1-2.7C264.5,94.8,263.6,94.5,262.6,94.5z"
		/>
	<path d="M271.6,93.2h5v1.3h-3.7v2.8h3.7v1.3h-3.7v4.6h-1.4v-10H271.6z"/>
	<path d="M279.5,93.2h7.9v1.3h-3.3v8.7h-1.4v-8.7h-3.2V93.2z"/>
	<path d="M303,93.2h1.4l-3.8,10h-0.3l-3.1-8.1l-3.1,8.1h-0.3l-3.8-10h1.4l2.6,6.9l2.6-6.9h1.3l2.6,6.9L303,93.2z"/>
	<path d="M309.5,93.2h1l4.2,10h-1.4l-1.3-3h-4l-1.2,3h-1.4L309.5,93.2z M311.5,99l-1.5-3.6l-1.4,3.6H311.5z"/>
	<path d="M318.1,103.2v-10h2.4c1,0,1.7,0.2,2.3,0.7c0.6,0.5,0.8,1.2,0.8,2c0,0.6-0.1,1.1-0.4,1.5s-0.7,0.7-1.2,0.9
		c0.3,0.2,0.6,0.5,0.9,0.9s0.7,1,1.2,1.9c0.3,0.6,0.6,1,0.8,1.3l0.5,0.7h-1.6l-0.4-0.7c0,0,0-0.1-0.1-0.1L323,102l-0.4-0.7l-0.5-0.8
		c-0.3-0.4-0.5-0.7-0.8-1c-0.2-0.2-0.4-0.4-0.6-0.5s-0.5-0.2-0.9-0.2h-0.4v4.3L318.1,103.2L318.1,103.2z M319.8,94.5h-0.4v3.1h0.5
		c0.7,0,1.2-0.1,1.4-0.2c0.3-0.1,0.5-0.3,0.6-0.6c0.1-0.3,0.2-0.5,0.2-0.9c0-0.3-0.1-0.6-0.2-0.9c-0.2-0.3-0.4-0.4-0.7-0.5
		C321,94.5,320.5,94.5,319.8,94.5z"/>
	<path d="M328.6,93.2h5.4v1.3h-4v3h3.9v1.3H330v3.1h4.1v1.3h-5.5V93.2z"/>
</g>
</svg>
